<?xml version="1.0" encoding="UTF-8"?><svg enable-background="new 0 0 512 512" version="1.1" viewBox="0 0 512 512" xml:space="preserve" xmlns="http://www.w3.org/2000/svg"><rect x="38.957" y="244.87" width="122.44" height="111.3"/><path d="m422.96 0h-333.91c-27.62 0-50.087 22.468-50.087 50.087v161.39h434.09v-161.39c-1e-3 -27.619-22.468-50.087-50.087-50.087zm-16.696 150.26c0 9.223-7.479 16.696-16.696 16.696h-267.13c-9.217 0-16.696-7.473-16.696-16.696v-77.913c0-9.223 7.479-16.696 16.696-16.696h267.13c9.217 0 16.696 7.473 16.696 16.696v77.913z"/><path d="m38.957 389.56v72.348c0 27.619 22.468 50.087 50.087 50.087h72.348v-122.44h-122.44z"/><path d="M350.609,244.87V512h72.348c27.619,0,50.087-22.468,50.087-50.087V244.87H350.609z"/><rect x="194.78" y="389.56" width="122.44" height="122.44"/><rect x="194.78" y="244.87" width="122.44" height="111.3"/></svg>
