<svg height="664.03433" viewBox="0 0 1095.74023 664.03433" width="1095.74023" xmlns="http://www.w3.org/2000/svg"><path d="m701 661h394.74023v2h-394.74023z" fill="#3f3d56"/><path d="m474 429v-213h244v-216h-718v643h718v-214z" fill="#3f3d56"/><path d="m718 216v-216h-249v213h-220v-213h-249v216h225v213h-225v214h476v-214h-2v-213z" opacity=".1"/><path d="m224.12988 117.98284a172.00382 172.00382 0 0 1 -172 172v-172z" fill="#0d0820" transform="translate(-52.12988 -117.98284)"/><path d="m132.12988 117.98284a80.00357 80.00357 0 0 1 -80 80v44a124.00426 124.00426 0 0 0 124-124z" opacity=".1" transform="translate(-52.12988 -117.98284)"/><path d="m718 60v-31h-165v-29h-36v29 31 24 31h36 165v-31h-165v-24z" fill="#d0cde1"/><path d="m481.12988 448.98284a81 81 0 1 0 -92 80.23639v113.76361h-132.76361a81 81 0 1 0 0 22h132.76361v48h22v-48h45v-22h-45v-113.76361a81.00034 81.00034 0 0 0 70-80.23639z" fill="#d0cde1" transform="translate(-52.12988 -117.98284)"/><path d="m626.5 445.263 36.008 62.368 36.009 62.369h-72.017-72.017l36.009-62.369z" fill="#d0cde1"/><path d="m610.5 578h-72.017l36.009-62.369.25-.433-13.242-22.935-36.008 62.368-36.009 62.369h72.017 72.017l-22.517-39z" fill="#0d0820"/><path d="m159 345v-54h27v-32h-134v134h134v-48z" fill="#d0cde1"/><path d="m89 234h50v50h-50z" fill="#0d0820"/><path d="m989.162 357.83165-16.544 43.72345-59.664 20.935s-36-4-36 16c0 14.18058 43 2 43 2l78.66169-23.57271 24.816-61.44917z" fill="#ffb8b8" transform="translate(-52.12988 -117.98284)"/><path d="m635 228h234v202h-234z" fill="#0d0820"/><path d="m747.5 289.263 36.008 62.368 36.009 62.369h-72.017-72.017l36.009-62.369z" fill="#3f3d56"/><path d="m747.331 334.415 16.334 28.293 16.335 28.292h-32.669-32.67l16.335-28.292z" fill="#d0cde1"/><path d="m747.331 242.415 16.334 28.293 16.335 28.292h-32.669-32.67l16.335-28.292z" fill="#d0cde1"/><path d="m1024.15387 329.42035s-16.544-2.36343-24.816 28.36116-10.63544 33.088-10.63544 33.088 48.45031 7.09029 49.632 4.72686 10.63545-59.08573-14.18056-66.17602z" fill="#2f2e41" transform="translate(-52.12988 -117.98284)"/><circle cx="962.57027" cy="167.71406" fill="#ffb8b8" r="31.9063"/><g transform="translate(-52.12988 -117.98284)"><path d="m1000.51957 311.69463s10.63544 27.17944 7.09029 30.72459 43.72345 8.272 43.72345 8.272 3.54515-17.72572-10.63543-28.36116c0 0-5.90858-17.72572-4.72686-21.27087s-35.45145 10.63544-35.45145 10.63544z" fill="#ffb8b8"/><path d="m1028.88073 323.51178a85.216 85.216 0 0 0 -31.9063 21.27087c-14.18058 15.36229-21.27087 20.08915-21.27087 20.08915s-16.544 5.90857-10.63544 34.26973c2.95429 14.18058.88629 30.13373-1.92028 42.54174a265.8223 265.8223 0 0 0 -6.35172 58.65559v12.2473s-108.71777 228.071-72.08461 243.43328 69.72118 20.08915 72.08461 16.544 44.90517-187.89267 44.90517-187.89267 11.81715 197.34639 41.36 197.34639 77.99318-8.272 77.99318-8.272l-60.26746-236.343s14.18058-40.17831-21.27087-68.53947l-4.72686-12.99886c19.60447.01 28.56614-124.06968 8.272-134.7155.00003.00002-4.72683-3.54513-14.18055 2.36345z" fill="#2f2e41"/><path d="m999.33786 387.32438-16.544 43.72345-59.664 20.935s-36-4-36 16c0 14.18058 43 2 43 2l78.6617-23.57271 24.816-61.44918z" fill="#ffb8b8"/></g><ellipse cx="868.62393" cy="652.21718" fill="#2f2e41" rx="20.68001" ry="11.81715"/><ellipse cx="1026.97373" cy="652.21718" fill="#2f2e41" rx="20.68001" ry="11.81715"/><path d="m1027.01734 240.95422h-.00012a25.34145 25.34145 0 0 0 -4.89258.48651 21.44172 21.44172 0 0 0 -9.34021-2.15271h-.84777c-16.34473 0-29.59461 14.7901-29.59461 33.03461v.00006h5.47669l.88452-6.73224 1.29674 6.73224h4.56226a64.57589 64.57589 0 0 0 -2.119 16.55036v33.62384h8.28027l4.79395-12.45795-1.19849 12.45795h53.22314l4.35816-11.32538-1.0896 11.32538h5.99243v-26.40076c-.00001-30.45398-17.81275-55.14191-39.78578-55.14191z" fill="#2f2e41" transform="translate(-52.12988 -117.98284)"/></svg>