<svg height="697.55116" viewBox="0 0 998.28223 697.55116" width="998.28223" xmlns="http://www.w3.org/2000/svg"><path d="m149.66797 24h103v120h-103z" fill="#f2f2f2"/><path d="m427.66797 94h103v120h-103z" fill="#f2f2f2"/><path d="m706.66797 24h103v120h-103z" fill="#f2f2f2"/><path d="m228.62109 430.33668h270.98999v67.57001h-270.98999z" fill="#3f3d56"/><path d="m784.198 696.3h-238.76l67.05-116.13 52.33-90.64z" fill="#3f3d56"/><path d="m136.93799 515.84998h396.83997v180.5h-396.83997z" fill="#3f3d56"/><circle cx="664.40025" cy="442.31496" fill="#0d0820" r="47.05512"/><path d="m1.56445 695.55116h860.78955v2h-860.78955z" fill="#3f3d56"/><path d="m499.608 434.87v63.04h-63.81l39-67.57h22.2z" opacity=".1"/><path d="m533.778 515.85v180.5h-212.55l.2-.35 104.01-180.15z" opacity=".1"/><path d="m679.538 696.3h-134.1l67.05-116.13 3 5.19z" opacity=".1"/><path d="m664.628 696.45h-329.46l.26-.45 108.05-187.15 56.42-97.73 100.59 174.24 64.05 110.94z" fill="#0d0820"/><g fill="#3f3d56"><circle cx="499.40025" cy="393.31496" r="20.26772"/><path d="m544.29639 500.99005a368.02149 368.02149 0 0 1 -120.72217-20.26465c-52.05222-17.99707-94.69483-42.8208-126.74222-73.78174-60.62109-58.56592-110.32129-67.39209-141.33349-64.48584-33.57032 3.14746-53.11084 20.33789-53.3042 20.51123l-1.33545-1.48877c.19726-.17725 20.14062-17.75781 54.32324-21.00146 20.04541-1.90088 41.00781 1.41113 62.30664 9.84716 26.56055 10.52 53.72314 29.085 80.73291 55.1792 31.83643 30.75733 74.231 55.4292 126.00586 73.32959 95.04736 32.86133 202.16943 24.90528 293.89892-21.8291 30.3711-15.47461 60.38868-26.03711 89.21778-31.394 36.35351-6.75684 70.83008-5.18848 102.47949 4.6582 69.54883 21.63721 117.05371 20.48975 144.6582 15.71924 29.78418-5.148 43.29786-15.45068 43.43067-15.5542l1.22851 1.57861c-.55957.43506-14.0459 10.71387-44.31933 15.94629-27.82227 4.80957-75.667 5.97461-145.5918-15.78076-70.80078-22.02441-142.50879 2.312-190.19531 26.60792a383.87946 383.87946 0 0 1 -145.63664 41.08491q-14.60308 1.11768-29.10161 1.11817z" transform="translate(-100.85889 -101.22442)"/><path d="m318.50781 424.57257-1.43115-1.397a73.10676 73.10676 0 0 0 14.66211-25.65088c4.86572-14.64306 7.24268-37.769-9.06787-64.7832-16.688-27.63965-17.439-50.08935-15.13086-64.05517 2.51221-15.19629 8.9209-23.71436 9.19238-24.06934l1.58936 1.21436c-.064.08349-6.417 8.55615-8.82764 23.29931-2.22559 13.61133-1.44922 35.51709 14.88867 62.57666 16.72754 27.70508 14.24951 51.47315 9.22559 66.5332-5.44385 16.31741-14.7085 25.93069-15.10059 26.33206z" transform="translate(-100.85889 -101.22442)"/><path d="m393.52686 246.22442h-144v-144h144zm-142-2h140v-140h-140z" transform="translate(-100.85889 -101.22442)"/><path d="m597.5083 495.57208-1.43164-1.39649a73.122 73.122 0 0 0 14.66211-25.65039c4.86621-14.64355 7.24219-37.76953-9.06836-64.78369-16.6875-27.63965-17.43848-50.08935-15.12988-64.05517 2.51172-15.19629 8.91992-23.71436 9.19238-24.06934l1.58887 1.21436c-.06348.08349-6.417 8.55615-8.82813 23.29931-2.22558 13.61133-1.44922 35.51709 14.88965 62.57666 16.72754 27.70508 14.249 51.47315 9.22461 66.53369-5.44336 16.31739-14.70801 25.92969-15.09961 26.33106z" transform="translate(-100.85889 -101.22442)"/><path d="m672.52686 317.22442h-144v-144h144zm-142-2h140v-140h-140z" transform="translate(-100.85889 -101.22442)"/><path d="m875.5083 423.57257-1.43164-1.397a73.11541 73.11541 0 0 0 14.66211-25.65088c4.86621-14.64306 7.24219-37.769-9.06836-64.7832-16.6875-27.63965-17.43848-50.08935-15.12988-64.05517 2.51172-15.19629 8.91992-23.71436 9.19238-24.06934l1.58887 1.21436c-.06348.08349-6.417 8.55615-8.82813 23.29931-2.22558 13.61133-1.44922 35.51709 14.88965 62.57666 16.72754 27.70508 14.249 51.47315 9.22461 66.5332-5.44336 16.31741-14.70801 25.93069-15.09961 26.33206z" transform="translate(-100.85889 -101.22442)"/><path d="m950.52686 245.22442h-144v-144h144zm-142-2h140v-140h-140z" transform="translate(-100.85889 -101.22442)"/><path d="m178.66797 43h88v2h-88z"/><path d="m178.66797 65h88v2h-88z"/><path d="m178.66797 87h88v2h-88z"/><path d="m455.66797 111h88v2h-88z"/><path d="m455.66797 133h88v2h-88z"/><path d="m455.66797 155h88v2h-88z"/><path d="m733.66797 43h88v2h-88z"/><path d="m733.66797 65h88v2h-88z"/><path d="m733.66797 87h88v2h-88z"/></g><path d="m922.279 765.37659c5.391 19.92827 23.85626 32.27034 23.85626 32.27034s9.7248-19.968 4.33383-39.89629-23.85626-32.27033-23.85626-32.27033-9.72478 19.96802-4.33383 39.89628z" fill="#0d0820" transform="translate(-100.85889 -101.22442)"/><path d="m930.20067 761.0938c14.7929 14.40029 16.59974 36.53688 16.59974 36.53688s-22.17718-1.21088-36.97008-15.61117-16.59974-36.53689-16.59974-36.53689 22.17718 1.21088 36.97008 15.61118z" fill="#3f3d56" transform="translate(-100.85889 -101.22442)"/><path d="m191.66797 558h103v120h-103z" fill="#f2f2f2"/><path d="m435.52686 779.22442h-144v-144h144zm-142-2h140v-140h-140z" fill="#fff" transform="translate(-100.85889 -101.22442)"/><path d="m218.66797 577h88v2h-88z" fill="#0d0820"/><path d="m218.66797 599h88v2h-88z" fill="#0d0820"/><path d="m218.66797 621h88v2h-88z" fill="#0d0820"/><path d="m327.39722 318.41089h-.00006c-24.032 0-43.51376 21.62049-43.51376 48.29071v33.8848h10.42141l6.0334-12.55459-1.50836 12.55459h66.98482l5.48492-11.41327-1.37121 11.41327h7.54176v-26.60564c0-30.69036-22.41841-55.56987-50.07292-55.56987z" fill="#2f2e41" transform="translate(-100.85889 -101.22442)"/><path d="m277.53809 539.79617-26.71709 11.35476-92.84187 75.47577a27.32591 27.32591 0 0 0 -6.01134 14.6944c-.66793 8.683-28.72087 54.1021-18.702 60.11344s46.087 24.04538 48.09075 12.02269 12.69062-63.45308 12.69062-63.45308l89.50224-80.15126z" fill="#2f2e41" transform="translate(-100.85889 -101.22442)"/><path d="m172.67353 703.43832-11.35476 33.39636s12.02269 12.69062 6.01134 23.37745v36.736h-9.351l-2.67171-19.36989s-10.65081 19.12517-16.03025 19.36989c-11.27717.513-33.60924 4.52434-34.27717-1.487s16.91107-11.87155 16.91107-11.87155l18.702-51.43039 8.01512-31.39258z" fill="#2f2e41" transform="translate(-100.85889 -101.22442)"/><path d="m347.00252 531.11312s6.01134 58.77759-11.35476 69.46442-94.17776 44.75112-94.17776 44.75112 32.72843 30.72465 26.04916 38.07185-36.736 27.385-40.74356 23.37745-48.75868-52.09832-43.41526-67.46064 79.48333-65.45686 79.48333-65.45686l8.683-31.39258 2.67171-25.38123 28.05294-18.034z" fill="#2f2e41" transform="translate(-100.85889 -101.22442)"/><circle cx="215.54264" cy="265.19486" fill="#ffb9b9" r="27.84476"/><path d="m337.9855 377.82384s-1.33585 25.38123 19.36989 33.39635-51.43039 60.11345-51.43039 60.11345v-58.10964s9.351-10.01891 0-25.38124z" fill="#ffb9b9" transform="translate(-100.85889 -101.22442)"/><path d="m382.40266 497.04883-5.34342 26.04917-16.03024 89.50223s13.35854 38.07185-4.67549 37.40392-9.351-41.41148-9.351-41.41148l9.351-74.13992v-28.72086z" fill="#ffb9b9" transform="translate(-100.85889 -101.22442)"/><path d="m267.51919 484.35822-6.01135 23.37745-27.385 66.12479s-18.702 31.39257-3.33964 30.72464 15.36233-30.72464 15.36233-30.72464l31.39257-53.43418v-30.05672z" fill="#ffb9b9" transform="translate(-100.85889 -101.22442)"/><path d="m262.8437 679.393 22.04159 20.70574s15.36233-3.33964 21.37367 14.6944 10.01891 29.38879 10.01891 29.38879l-8.01513 4.67549-10.0189-14.02647s-6.01135 25.38123-12.02269 27.385-36.06807 15.36233-33.39636 0l14.6944-21.37367s2.00378-24.04537-4.00757-26.04915-22.04162-22.04164-22.04162-22.04164z" fill="#2f2e41" transform="translate(-100.85889 -101.22442)"/><path d="m348.06136 551.81886s-62.78515-22.70952-66.79272-20.70574a30.12046 30.12046 0 0 1 -9.40793 2.44178l.057-9.121s20.70574-7.3472 32.06051-2.67171 46.087 25.38123 46.087 25.38123z" fill="#3f3d56" transform="translate(-100.85889 -101.22442)"/><path d="m309.93256 457.97509s18.034-20.70574 23.37745-33.39635a32.79069 32.79069 0 0 1 17.3353-17.04617s40.10644 9.031 39.43851 25.06129-25.38123 40.74356-25.38123 40.74356 3.33963 88.83431-14.6944 87.49846a38.68242 38.68242 0 0 1 -8.01513-16.03026c-2.00378-9.351-64.121-19.36988-64.121-19.36988s-5.34342 9.351-6.01135 5.34341 5.34342-102.19285 5.34342-102.19285l31.85141-21.05373z" fill="#d0cde1" transform="translate(-100.85889 -101.22442)"/><path d="m384.93877 426.14142.44725.251a9.215 9.215 0 0 1 4.7053 8.03735l-.00685 49.56884a9.28769 9.28769 0 0 0 3.3039 7.0688c2.57292 2.18849 4.95882 5.34208.03509 6.98332-8.01513 2.67171-39.40771 16.03026-40.07563 11.35477s-2.00379-10.01891 0-10.01891c1.5687 0 10.91537-47.89585 18.42554-68.37431a9.21645 9.21645 0 0 1 13.1654-4.87086z" fill="#d0cde1" transform="translate(-100.85889 -101.22442)"/><path d="m286.22115 426.24855-9.351 2.67171-10.68684 46.087s-12.69061 2.67171-8.68305 7.3472 20.70574 16.69815 20.70574 16.69815z" fill="#d0cde1" transform="translate(-100.85889 -101.22442)"/><path d="m339.76739 331.71338a22.82089 22.82089 0 0 0 -18.00636-9.18879h-.8543c-16.47157 0-29.82435 14.90488-29.82435 33.291v.00007h5.51919l.89134-6.78453 1.30687 6.78453h32.734l2.74249-5.73984-.68564 5.73984h6.43972q4.50748 22.38537-12.95306 44.77074h10.9699l5.48491-11.47968-1.37121 11.47968h20.9113l4.11371-26.40333c-.00001-19.77364-11.48908-36.5413-27.41851-42.46969z" fill="#2f2e41" transform="translate(-100.85889 -101.22442)"/><path d="m311.14111 430.33668h104v33.90002h-104z" opacity=".1"/><path d="m317.14111 401.2367h94v58h-94z" fill="#0d0820"/></svg>