<svg height="612" viewBox="0 0 1020 612" width="1020" xmlns="http://www.w3.org/2000/svg"><path d="m569.75916 855.19685-26.49227-74.17837s29.1415 14.57075 30.46612 33.11534c0 0-6.62307-92.723-19.86921-112.59217 0 0 21.19382 2.64923 45.03687 105.9691 0 0 3.97384-119.21524-31.79073-153.6552 0 0 49.01071 39.73842 52.98455 125.83831v75.503z" fill="#f2f2f2" transform="translate(-290 -244)"/><path d="m1066.59028 855.19685-6.36981-17.83546s7.00679 3.50339 7.32528 7.96226c0 0-1.59245-22.29433-4.77735-27.07168 0 0 5.09584.637 10.82867 25.47923 0 0 .95547-28.66414-7.64377-36.94488 0 0 11.78414 9.55471 12.73961 30.25658v18.154z" fill="#f2f2f2" transform="translate(-290 -244)"/><circle cx="658.58268" cy="341.33858" fill="#f2f2f2" r="116.45669"/><path d="m0 8.83465h274.67717v152.59843h-274.67717z" fill="#f2f2f2"/><path d="m372.66142 8.83465h274.67717v152.59843h-274.67717z" fill="#f2f2f2"/><path d="m745.32283 8.83465h274.67717v152.59843h-274.67717z" fill="#f2f2f2"/><path d="m996.08615 855.61568c-.18431-.30118-4.53026-7.55776-6.03695-22.62623-1.382-13.82453-.49334-37.12685 11.59155-69.63166 22.89447-61.5782-5.27616-111.26289-5.564-111.7578l1.38983-.80628c.07294.12549 7.34207 12.79313 11.63625 32.96443a143.81285 143.81285 0 0 1 -5.95617 80.15966c-22.85525 61.4731-5.86362 90.57394-5.6895 90.861z" fill="#3f3d56" transform="translate(-290 -244)"/><circle cx="697.13386" cy="393.54331" fill="#0d0820" r="10.44094"/><circle cx="730.06299" cy="432.09449" fill="#3f3d56" r="10.44094"/><circle cx="707.5748" cy="457.79528" fill="#0d0820" r="10.44094"/><circle cx="734.88189" cy="479.48031" fill="#0d0820" r="10.44094"/><circle cx="699.54331" cy="513.2126" fill="#3f3d56" r="10.44094"/><path d="m1002.3937 856s-10.44094-25.70079 20.88189-44.97638z" fill="#3f3d56" transform="translate(-290 -244)"/><path d="m989.553 855.5338s-4.75177-27.33065-41.52966-27.09641z" fill="#3f3d56" transform="translate(-290 -244)"/><path d="m.40157 0h273.87402v13.65354h-273.87402z" fill="#3f3d56"/><path d="m373.06299 0h274.67717v13.65354h-274.67717z" fill="#3f3d56"/><path d="m745.72441 0h273.87402v13.65354h-273.87402z" fill="#3f3d56"/><path d="m20.88189 34.93701h49.79528v35.33858h-49.79528z" fill="#fff"/><path d="m116.45669 34.93701h137.33858v4.01575h-137.33858z" fill="#fff"/><path d="m116.45669 51h137.33858v4.01575h-137.33858z" fill="#fff"/><path d="m116.45669 67.06299h137.33858v4.01575h-137.33858z" fill="#fff"/><path d="m393.54331 34.93701h49.79528v35.33858h-49.79528z" fill="#fff"/><path d="m489.11811 34.93701h137.33858v4.01575h-137.33858z" fill="#fff"/><path d="m489.11811 51h137.33858v4.01575h-137.33858z" fill="#fff"/><path d="m489.11811 67.06299h137.33858v4.01575h-137.33858z" fill="#fff"/><path d="m766.20472 34.93701h49.79528v35.33858h-49.79528z" fill="#fff"/><path d="m861.77953 34.93701h137.33858v4.01575h-137.33858z" fill="#fff"/><path d="m861.77953 51h137.33858v4.01575h-137.33858z" fill="#fff"/><path d="m861.77953 67.06299h137.33858v4.01575h-137.33858z" fill="#fff"/><circle cx="45.77953" cy="53.00787" fill="#0d0820" r="16.06299"/><circle cx="791.10236" cy="53.00787" fill="#0d0820" r="16.06299"/><path d="m126.71411 161.43307h1.6063v4.8189h-1.6063z" fill="#3f3d56"/><path d="m418.3204 603.00787h-1.60629v-9.63779h1.60629zm0-19.27559h-1.60629v-9.63779h1.60629zm0-19.27559h-1.60629v-9.63779h1.60629zm0-19.27559h-1.60629v-9.63779h1.60629zm0-19.27559h-1.60629v-9.63779h1.60629zm0-19.27559h-1.60629v-9.63779h1.60629zm0-19.27559h-1.60629v-9.63779h1.60629zm0-19.27559h-1.60629v-9.6378h1.60629zm0-19.27559h-1.60629v-9.6378h1.60629zm0-19.27559h-1.60629v-9.6378h1.60629z" fill="#3f3d56" transform="translate(-290 -244)"/><path d="m132.336 374.268h-5.622v-5.622h1.606v4.015h4.016z" fill="#3f3d56"/><path d="m1158.1608 618.26772h-9.68172v-1.6063h9.68172zm-19.36343 0h-9.68172v-1.6063h9.68172zm-19.36344 0h-9.6825v-1.6063h9.6825zm-19.36422 0h-9.68171v-1.6063h9.68171zm-19.36343 0h-9.6825v-1.6063h9.6825zm-19.36422 0h-9.68172v-1.6063h9.68172zm-19.36344 0h-9.6825v-1.6063h9.6825zm-19.36422 0h-9.68171v-1.6063h9.68171zm-19.36343 0h-9.6825v-1.6063h9.6825zm-19.36422 0h-9.68175v-1.6063h9.68172zm-19.36344 0h-9.6825v-1.6063h9.6825zm-19.36421 0h-9.68172v-1.6063h9.68172zm-19.36344 0h-9.6825v-1.6063h9.6825zm-19.36422 0h-9.68172v-1.6063h9.68172zm-19.36343 0h-9.68251v-1.6063h9.6825zm-19.36422 0h-9.68172v-1.6063h9.68172zm-19.36344 0h-9.6825v-1.6063h9.6825zm-19.36422 0h-9.68172v-1.6063h9.68172zm-19.36343 0h-9.68211v-1.6063h9.68211zm-19.36383 0h-9.68211v-1.6063h9.68211zm-19.36383 0h-9.68211v-1.6063h9.68207zm-19.36382 0h-9.68211v-1.6063h9.68211zm-19.36383 0h-9.68211v-1.6063h9.68211zm-19.36383 0h-9.68211v-1.6063h9.68211zm-19.36383 0h-9.68211v-1.6063h9.68211zm-19.36382 0h-9.68211v-1.6063h9.68211zm-19.36383 0h-9.68208v-1.6063h9.68211zm-19.36383 0h-9.68211v-1.6063h9.68211zm-19.36383 0h-9.6821v-1.6063h9.6821zm-19.36382 0h-9.68211v-1.6063h9.68211zm-19.36383 0h-9.68211v-1.6063h9.68211zm-19.36383 0h-9.68171v-1.6063h9.68171zm-19.36382 0h-9.68172v-1.6063h9.68172zm-19.36383 0h-9.68172v-1.6063h9.68172zm-19.36383 0h-9.68172v-1.6063h9.68172zm-19.36383 0h-9.68171v-1.6063h9.68171zm-19.36382 0h-9.68172v-1.6063h9.68172zm-19.36383 0h-9.68172v-1.6063h9.68174z" fill="#3f3d56" transform="translate(-290 -244)"/><path d="m883.465 374.268h-5.622v-1.607h4.015v-4.015h1.607z" fill="#3f3d56"/><path d="m1173.46457 603.00787h-1.6063v-9.63779h1.6063zm0-19.27559h-1.6063v-9.63779h1.6063zm0-19.27559h-1.6063v-9.63779h1.6063zm0-19.27559h-1.6063v-9.63779h1.6063zm0-19.27559h-1.6063v-9.63779h1.6063zm0-19.27559h-1.6063v-9.63779h1.6063zm0-19.27559h-1.6063v-9.63779h1.6063zm0-19.27559h-1.6063v-9.6378h1.6063zm0-19.27559h-1.6063v-9.6378h1.6063zm0-19.27559h-1.6063v-9.6378h1.6063z" fill="#3f3d56" transform="translate(-290 -244)"/><path d="m881.85827 161.43307h1.6063v4.8189h-1.6063z" fill="#3f3d56"/><path d="m372.66142 325.27559h274.67717v285.92126h-274.67717z" fill="#3f3d56"/><path d="m393.54331 362.62205h49.79528v35.33858h-49.79528z" fill="#fff"/><path d="m489.11811 362.62205h137.33858v4.01575h-137.33858z" fill="#fff"/><path d="m489.11811 378.68504h137.33858v4.01575h-137.33858z" fill="#fff"/><path d="m489.11811 394.74803h137.33858v4.01575h-137.33858z" fill="#fff"/><path d="m393.54331 489.92126h49.79528v35.33858h-49.79528z" fill="#fff"/><path d="m489.11811 489.92126h137.33858v4.01575h-137.33858z" fill="#fff"/><path d="m489.11811 505.98425h137.33858v4.01575h-137.33858z" fill="#fff"/><path d="m489.11811 522.04724h137.33858v4.01575h-137.33858z" fill="#fff"/><path d="m418.652 389.229-17.045-22.726 4.038-3.028 13.885 18.514 35.393-28.665 3.196 3.906z" fill="#0d0820"/><path d="m418.652 515.324-17.045-22.726 4.038-3.028 13.885 18.513 35.393-28.665 3.196 3.907z" fill="#0d0820"/><path d="m7.22835 610.3937h991.88976v1.6063h-991.88976z" fill="#3f3d56"/><g transform="translate(-290 -244)"><path d="m834.57387 414.26772s26.50393-11.54886 38.95275.65077-33.33071 8.18387-38.95275-.65077z" fill="#3f3d56"/><path d="m880.33918 359.49668c-8.90681-15.04974-26.52821-15.75113-26.52821-15.75113s-17.171-2.19581-28.18616 20.72513c-10.267 21.3642-24.4367 41.99177-2.28122 46.993l4.00193-12.45578 2.47837 13.3831a86.68625 86.68625 0 0 0 9.47951.162c23.72674-.766 46.32287.22413 45.59531-8.29-.96717-11.31841 4.0106-30.28546-4.55953-44.76632z" fill="#2f2e41"/><path d="m892.80221 632.32283s-11.24409 20.88189-18.47244 20.88189-6.4252 13.65355-4.8189 16.86615 5.62205 10.44094-.80315 20.88189c-2.24432 3.647-1.84284 7.784-.37009 11.62368 4.12646 10.75826 20.17827 7.49888 19.66619-4.01223q-.00848-.19035-.02051-.38311c-.80315-12.85039 5.62205-32.92913 12.04725-37.748s12.04724-17.66929 12.04724-17.66929z" fill="#ffb8b8"/><path d="m815.69985 627.50394s11.24409 20.88189 18.47244 20.88189 6.4252 13.65354 4.8189 16.86614-5.622 10.44094.80315 20.88189c2.24432 3.647 1.84284 7.784.37009 11.62368-4.12646 10.75827-20.17827 7.49888-19.66619-4.01223q.00847-.19035.02051-.38311c.80315-12.85039-5.622-32.92913-12.04725-37.748s-12.04724-17.66929-12.04724-17.66929z" fill="#ffb8b8"/><path d="m824.53449 524.70079-4.81889 10.44094s-70.67717 23.29134-64.252 50.59843 37.748 69.874 42.56693 68.26771 30.51968-6.42519 31.32283-20.07874-18.47244-37.748-18.47244-37.748l26.50394-24.09449 38.56752-.80315 32.91282 24.89761s-34.53543 30.51969-19.27559 42.56693 37.748 20.07874 40.96063 15.25984 39.35433-76.29921 33.73229-82.72441-62.64567-30.51968-62.64567-30.51968l-15.25985-21.685-59.43307-3.2126z" fill="#2f2e41"/><path d="m838.99119 392.1811s4.01575 26.50394-4.01575 29.71654 16.063 16.86614 16.063 16.86614h13.65356l8.83464-18.47244s-8.0315-14.45669-3.2126-28.11024-31.32285 0-31.32285 0z" fill="#ffb8b8"/><path d="m838.99119 392.1811s4.01575 26.50394-4.01575 29.71654 16.063 16.86614 16.063 16.86614h13.65356l8.83464-18.47244s-8.0315-14.45669-3.2126-28.11024-31.32285 0-31.32285 0z" opacity=".1"/><path d="m833.36914 414.66929s8.83465 9.6378 10.44095 11.2441 8.83464 10.44094 24.09448-2.40945 16.86615 2.40945 16.86615 2.40945v96.378s-12.8504-5.622-23.29134 0-32.126-1.6063-32.126-1.6063l-4.01575-99.59055z" fill="#fff"/><path d="m839.26859 414.66929s-7.50575-3.2126-13.931 0-28.91338 19.27559-27.30708 26.50394 22.48824 57.82677 8.03154 81.92126-16.86614 30.51968-16.86614 30.51968l35.33858-18.47244s27.30709-16.86614 24.89764-27.30708-10.16354-93.16536-10.16354-93.16536z" fill="#0d0820"/><path d="m871.12665 414.66929s16.85666 1.6063 17.65981 3.2126 25.29922 8.43307 23.69292 15.66142-23.69292 71.88189-14.05512 83.92913 25.70079 28.91339 20.07874 30.51969-15.25984-2.40945-24.89764 0-32.126-17.6693-29.71653-39.35433.01894-88.34646 7.23782-93.96851z" fill="#0d0820"/><path d="m830.95969 568.07087v8.03149s-4.01575 18.47244 8.83465 17.66929 4.8189-22.48819 4.8189-22.48819l-.80315-7.22834z" fill="#ffb8b8"/><path d="m867.10142 568.874s-8.83464 18.47244 0 20.07874 15.25985-10.441 15.25985-13.65355-15.25985-6.42519-15.25985-6.42519z" fill="#ffb8b8"/></g><ellipse cx="588.74709" cy="137.33858" fill="#ffb8b8" rx="1.6063" ry="3.2126"/><ellipse cx="541.36127" cy="137.33858" fill="#ffb8b8" rx="1.6063" ry="3.2126"/><path d="m892.80221 425.11024s20.07874 0 19.27559 8.03149-27.30708 146.17327-27.30708 146.17327-11.2441-10.44094-20.88189-8.0315z" fill="#0d0820" transform="translate(-290 -244)"/><path d="m814.8967 427.51969s-20.07874 4.01574-20.07874 16.063 28.91339 127.70078 32.92913 127.70078 19.27559-2.40944 19.27559-6.42519-32.12598-137.33859-32.12598-137.33859z" fill="#0d0820" transform="translate(-290 -244)"/><path d="m819.314 451.2126 18.07087 70.67s-8.43305-61.83536-18.07087-70.67z" opacity=".2" transform="translate(-290 -244)"/><path d="m889.60328 441.28263-18.27637 92.39721s5.84121-87.06734 18.27637-92.39721z" opacity=".2" transform="translate(-290 -244)"/><circle cx="565.05418" cy="137.74016" fill="#ffb8b8" r="23.29134"/><path d="m586.401 114.046-17.409-9.119-24.041 3.73-4.974 21.969 12.382-.476 3.459-8.071v7.938l5.713-.22 3.316-12.85 2.073 13.679 20.31-.414z" fill="#2f2e41"/></svg>