<svg height="794" viewBox="0 0 1012 794" width="1012" xmlns="http://www.w3.org/2000/svg"><path d="m423.3103 249.13721-119.9295 99.45849a54.31348 54.31348 0 1 1 -83.525 69.26789l-107.52169 89.16858 172.35559 207.83062 310.97619-257.895z" fill="#f2f2f2" transform="translate(-94 -53)"/><path d="m1106 550.26179c0 122.83942-73.02609 165.73036-163.10833 165.73036s-163.10833-42.89094-163.10833-165.73036 163.10833-279.11055 163.10833-279.11055 163.10833 156.27112 163.10833 279.11055z" fill="#f2f2f2" transform="translate(-94 -53)"/><path d="m842.95 644.201 1.67-102.805 69.521-127.185-69.259 111.058.751-46.226 47.914-92.017-47.715 79.784v.001l1.35-83.139 51.307-73.257-51.094 60.183.844-152.447-5.304 201.813.436-8.326-52.164-79.845 51.328 95.827-4.861 92.852-.144-2.465-60.136-84.026 59.953 92.733-.607 11.612-.109.174.049.953-12.331 235.573h16.476l1.976-121.678 59.807-92.505z" fill="#3f3d56"/><ellipse cx="707" cy="777" fill="#3f3d56" rx="228" ry="17"/><path d="m692 0h36v782h-36z" fill="#3f3d56"/><path d="m1008.47332 802.11115c0 22.46856-13.35644 30.31375-29.83388 30.31375q-.57257 0-1.14331-.01273c-.76345-.01636-1.51962-.05271-2.26669-.10361-14.87057-1.05244-26.42387-9.30115-26.42387-30.19741 0-21.62514 27.63446-48.91242 29.71026-50.93189l.00364-.00363c.08-.07816.12-.11633.12-.11633s29.83385 28.58329 29.83385 51.05185z" fill="#0d0820" transform="translate(-94 -53)"/><path d="m977.55246 828.98762 10.91163-15.24683-10.9389 16.92094-.02906 1.75044c-.76345-.01636-1.51962-.05271-2.26669-.10361l1.17607-22.47946-.0091-.1745.02-.03272.11088-2.12307-10.96619-16.96276 11.0007 15.37045.02548.45079.88883-16.98456-9.38839-17.52807 9.50291 14.547.9252-35.21244.00364-.12v.11633l-.1545 27.76715 9.34661-11.008-9.38478 13.40006-.2472 15.20685 8.72677-14.59429-8.76312 16.83189-.13814 8.4541 12.66934-20.31277-12.7166 23.2629z" fill="#3f3d56" transform="translate(-94 -53)"/><path d="m743.22676 785.29014-6.3818-4.74121s-4.22435 23.59659.48949 27.132 22.39076 9.42769 22.39076 16.49846 40.06768 16.49845 41.24614 5.8923-3.53538-16.49845-3.53538-16.49845-18.85538-18.85538-21.2123-22.39076-8.24923-10.60615-8.24923-10.60615z" fill="#2f2e41" transform="translate(-94 -53)"/><path d="m837.50364 491.85334s-.17679 1.03705-.48306 2.93436c-.283 1.68519-.6718 4.0657-1.14322 7.00006-4.94962 30.204-19.38577 119.11886-18.40755 122.05322 1.17846 3.53538 9.42768 16.49845 0 20.03384-.90744.34172-1.88551 1.44948-2.93436 3.19358a68.49432 68.49432 0 0 0 -4.98487 11.76109c-5.62128 16.30986-11.63155 42.4128-15.10795 60.49035-1.52026 7.94289-2.55717 14.33013-2.86358 17.67692a9.61182 9.61182 0 0 0 -.03539 2.3334c1.17846 4.71385-7.07076 21.2123-10.60615 25.92615s-9.42769 9.42768-8.24922 14.14153-29.46153 17.67691-32.99691 9.42769-3.53539-12.96307-4.71385-15.32-2.35692-18.85537 3.53538-21.2123 2.35693-43.603 8.24923-51.85228c1.96794-2.74584 4.97307-12.04391 8.11962-23.2275 1.23729-4.38384 2.48653-9.05057 3.71218-13.729 4.97307-19.17359 9.3805-38.465 9.3805-38.465l-1.17844-137.87995 64.81536-8.24923 1.66153 3.665 3.31154 7.27109z" fill="#2f2e41" transform="translate(-94 -53)"/><path d="m841.039 718.11786s9.42769-9.42768 14.14153 0 9.42769 45.96 17.67692 54.20921 18.85537 49.49537 7.07076 51.85229-24.74768-3.53538-25.92614-10.60615-25.92607-43.60306-25.92607-47.13844 16.49845-16.49846 16.49845-16.49846z" fill="#2f2e41" transform="translate(-94 -53)"/><path d="m696.08832 427.038s15.32 137.87995 18.85537 150.843 22.39076 62.45843 28.28307 70.70766 43.60306 75.42151 48.3169 78.95689 14.14154 12.96307 14.14154 12.96307 17.67691 17.67692 20.03383 21.2123 22.39076-7.07076 23.56922-14.14153-1.17846-18.85538-2.35692-23.56922 2.35692-11.78461-1.17846-15.32-21.2123-21.2123-21.2123-29.46153-30.64-56.56613-42.4246-67.17228-9.42768-28.28307-9.42768-28.28307v-71.88611l64.81535-20.03384s-3.53538-56.56613-11.78461-56.56613-116.66764-18.85538-129.63071-8.24921z" fill="#2f2e41" transform="translate(-94 -53)"/><circle cx="697.54366" cy="138.34577" fill="#9f616a" r="38.88922"/><g transform="translate(-94 -53)"><path d="m778.58059 221.98576s-4.71384 17.67691-10.60615 22.39076 15.32 24.74768 15.32 24.74768l40.06767 2.35692 7.07077-22.39076s-12.96307-25.92614-9.42769-42.4246-42.4246 15.32-42.4246 15.32z" fill="#9f616a"/><path d="m762.08214 242.01959s10.60615 1.17847 12.96307 4.71385 18.85537 14.14153 31.81845 11.78461 21.2123-5.89231 23.56922-4.71384 7.07076 25.92614 7.07076 25.92614l-12.96307 37.71075 2.35692 103.70458 3.53539 28.28306s7.07076-9.42769-21.2123-3.53538-64.81536-4.71385-76.6-5.89231-31.81845-4.71384-32.99691-11.78461 3.53538-32.99691 3.53538-32.99691l18.85538-78.95689 11.78461-42.4246z" fill="#3f3d56"/><path d="m773.22908 236.70072s-9.96848-5.28728-13.50387-.57343-48.3169 11.78461-48.3169 15.32-9.42769 98.99073-7.07077 107.24-4.71384 17.67692-4.71384 17.67692l-8.24923 35.35379s-22.39076 67.17228-12.96307 69.5292 17.67692 0 21.2123 0 2.35692-44.78152 11.78461-56.56613 22.39076-41.24614 24.74768-47.13844 31.81845-87.20612 30.64-96.63381 6.43309-44.2081 6.43309-44.2081z" fill="#d0cde1"/><path d="m822.18365 242.01959s9.42769 0 10.60615 2.35693 12.96307 17.67691 17.67692 21.2123 21.21228 18.85537 21.21228 22.39076-34.17537 29.46152-34.17537 29.46152-14.14153 69.52921-7.07076 93.09843 17.67691 80.13535 12.96307 83.67073-15.32 4.71385-15.32 0-7.07077-55.38767-12.96308-65.99382-23.56922-77.77843-16.49845-96.6338 23.56924-89.56305 23.56924-89.56305z" fill="#d0cde1"/><path d="m666.62679 358.68724s-1.17846 36.53229 11.78461 55.38767 21.2123 40.06768 21.2123 40.06768 21.2123-5.89231 24.74768-12.96308 25.92615-1.17846 25.92615-3.53538-27.10461-14.14153-29.46153-16.49845-10.60615-2.35693-15.32-7.07077-5.89231-15.32-5.89231-15.32l-4.71384-30.64z" fill="#9f616a"/><path d="m764.75883 167.36749c-2.9918-.27176-6.07737-.57079-8.72149-1.99675-5.92458-3.19509-7.49563-12.29387-2.98552-17.29068a22.344 22.344 0 0 1 4.14313-3.33142l8.95783-6.09718c3.96186-2.69664 8.01737-5.43748 12.6382-6.70871 4.17944-1.1498 8.59364-1.03165 12.92-.76273 8.39862.522 16.84923 1.60028 24.74865 4.5s15.2682 7.75089 20.05246 14.67333c7.58453 10.9742 7.68878 25.77486 3.51145 38.444s-12.11238 23.70139-19.9311 34.51l-4.05692-19.7948c-.36135-1.76309-.82864-3.69543-2.295-4.7389-3.64454-2.59347-8.10267 2.73144-12.57565 2.69692-2.87408-.02218-5.28706-2.38612-6.37625-5.04591s-1.1609-5.60529-1.4129-8.46838c-.53374-6.0642-2.65335-14.50206-8.39619-17.84651-5.35141-3.11646-14.20553-2.1959-20.2207-2.74228z" fill="#2f2e41"/><path d="m766.9404 492.80446s3.98019 115.12729 6.33712 118.66268 0-119.02457 0-119.02457z" opacity=".1"/><path d="m720.836 251.44728h-9.42769s-40.06768 54.20921-35.35383 57.74459 0 12.96308 0 12.96308l-9.42769 17.67691s-11.78461 10.60615-8.24923 12.96307 8.24923 11.78461 8.24923 11.78461 23.56922-3.53538 30.64 10.60615l15.28442-19.29563z" fill="#d0cde1"/><path d="m828.076 352.79493s-25.92615 1.17847-55.38767-17.67691l-29.46157-12.96302s-25.92614-40.06768-28.28307-32.99691 3.53539 21.2123 3.53539 21.2123-35.55485 16.45476-36.47908 18.62961 19.98062-3.30967 19.98062-3.30967-3.53538 22.39076 16.49846 23.56922 25.92614-3.53538 25.92614-3.53538 84.8492 70.70766 98.99073 48.3169-15.31995-41.24614-15.31995-41.24614z" fill="#9f616a"/><path d="m858.71594 283.26573 12.96307 4.71385v35.35383l4.71385 7.07076s-1.17846 14.14154-4.71385 17.67692-10.60614 2.35692-8.24922 10.60615a44.667 44.667 0 0 1 1.17846 16.49845s-21.2123 27.10461-22.39076 23.56923-17.67692-47.13845-20.03384-47.13845 23.56922-68.35074 23.56922-68.35074z" fill="#d0cde1"/><path d="m703.74831 461.80258s-12.185-11.78461-6.09251-12.37384 27.30481-12.37384 30.8402-6.48153-24.74769 18.85537-24.74769 18.85537z" fill="#2f2e41"/><path d="m517.71667 808a226.92219 226.92219 0 0 0 32.28333-117c0-125.921-102.0791-228-228-228s-228 102.079-228 228a226.92219 226.92219 0 0 0 32.28333 117z" fill="#3f3d56"/></g><circle cx="228" cy="623" fill="#0d0820" r="22"/><circle cx="53" cy="659" fill="#0d0820" r="11"/><circle cx="59.45435" cy="563.72636" fill="#0d0820" r="11"/><circle cx="114.05636" cy="485.38515" fill="#0d0820" r="11"/><circle cx="201.20813" cy="446.35574" fill="#0d0820" r="11"/><circle cx="296.01341" cy="457.78748" fill="#0d0820" r="11"/><circle cx="371.38961" cy="516.41472" fill="#0d0820" r="11"/><circle cx="405.80436" cy="605.48969" fill="#0d0820" r="11"/><circle cx="389.42656" cy="699.56675" fill="#0d0820" r="11"/><path d="m228 623 113-86" fill="none" stroke="#0d0820" stroke-miterlimit="10" stroke-width="4"/><circle cx="332.54207" cy="198.352" fill="none" r="14.75556" stroke="#3f3d56" stroke-miterlimit="10" stroke-width="2"/><circle cx="416.54207" cy="370.352" fill="#3f3d56" r="14.75556"/><circle cx="168.22291" cy="331.16552" fill="#f2f2f2" r="42.77709"/></svg>