<svg height="350" viewBox="0 0 582.54044 727.77805" width="280.19" xmlns="http://www.w3.org/2000/svg"><path d="m891.27022 259.05823h-3.99878v-109.54534a63.40185 63.40185 0 0 0 -63.4018-63.40189h-232.08673a63.40184 63.40184 0 0 0 -63.402 63.40172v600.97439a63.40185 63.40185 0 0 0 63.40182 63.40189h232.08661a63.40186 63.40186 0 0 0 63.402-63.40167v-413.45286h3.99884z" fill="#3f3d56" transform="translate(-308.72978 -86.11098)"/><path d="m826.42769 102.606h-30.295a22.49484 22.49484 0 0 1 -20.82715 30.99052h-132.95946a22.4948 22.4948 0 0 1 -20.82714-30.99056h-28.2956a47.34781 47.34781 0 0 0 -47.34784 47.34774v600.09255a47.34781 47.34781 0 0 0 47.34778 47.34784h233.20441a47.34781 47.34781 0 0 0 47.34784-47.34778v-600.09261a47.34777 47.34777 0 0 0 -47.34784-47.3477z" fill="#fff" transform="translate(-308.72978 -86.11098)"/><g fill="#e6e6e6"><path d="m265.08795 128.24741h135.60426v231.65728h-135.60426z"/><path d="m423.98991 378.05052h112.70621v262.26763h-112.70621z"/><path d="m424.10009 128.24741h113.00355v63.76629h-113.00355z"/><path d="m424.10009 209.7714h113.00355v68.6093h-113.00355z"/><path d="m424.10009 296.1384h113.00355v63.76629h-113.00355z"/></g><path d="m265.25574 378.05052h135.60426v100.95497h-135.60426z" fill="#0d0820"/><path d="m265.25574 498.57566h135.60426v141.95497h-135.60426z" fill="#e6e6e6"/><path d="m548.85713 473.40176 18.87517 9.58459c6.737 3.421 13.23861 2.83637 15.72849-4.29741a12.48085 12.48085 0 0 0 -9.49334-16.38173l-17.939-3.3489-76.8295-25.49012-46.53995-33.0008-17.0607 27.18086 53.77621 29.01767z" fill="#ffb8b8" transform="translate(-308.72978 -86.11098)"/><path d="m152.018 705.436 14.441-2.407-1.605-27.278h-15.243z" fill="#ffb8b8"/><path d="m11.857 678.794 13.976 4.359 10.862-25.073-13.608-6.87z" fill="#ffb8b8"/><path d="m387.01571 382.657c27.49676-11.6953 61.74442-4.28528 95.19092.85757.31124-6.228 4.08385-13.80782.132-18.15284-4.80115-5.2788-4.35917-10.82529-1.47008-16.40375 7.38788-14.265-3.1969-29.44375-13.88428-42.0647a23.66937 23.66937 0 0 0 -19.75537-8.29179l-19.7975 1.41411a23.70939 23.70939 0 0 0 -21.05293 16.94614c-4.72724 6.42917-7.25736 12.84055-5.66438 19.21854-7.08065 4.83882-8.27029 10.67977-5.08851 17.2644 2.698 4.14592 2.66928 8.18161-.12275 12.1056a55.89106 55.89106 0 0 0 -8.31012 16.5061z" fill="#2f2e41" transform="translate(-308.72978 -86.11098)"/><path d="m328.37 741.00271 17.65033 7.22059 84.24027-110.71573 26.4755 129.97064 17.65033-3.20915c11.32243-112.05194 20.555-226.34385 9.22631-280.39962l-65.38646-2.808-29.68465 94.67-14.44118 64.183z" fill="#2f2e41" transform="translate(-308.72978 -86.11098)"/><path d="m461.54207 813.60773a12.67189 12.67189 0 0 0 7.85522-.83484l8.57872-3.86042c7.19328-.36934 12.09123 1.06343 16.09631-4.163a10.49624 10.49624 0 0 0 1.22538-10.5816 10.56885 10.56885 0 0 0 -8.63109-6.28021l-11.783-7.42484-.61847 5.56623c-5.38534 3.05094-11.77909 1.733-18.5541-1.23694l-3.69822 12.94376a12.67188 12.67188 0 0 0 9.52925 15.87186z" fill="#2f2e41" transform="translate(-308.72978 -86.11098)"/><path d="m314.86865 787.05638a12.67184 12.67184 0 0 0 7.70062 1.76121l9.3674-.86547c6.92339 1.98653 11.09065 4.93215 16.57584 1.28955a10.49625 10.49625 0 0 0 4.59511-9.61025 10.56886 10.56886 0 0 0 -6.124-8.74262l-8.73335-10.84871-2.39246 5.06375c-6.08422 1.13683-11.70352-2.18588-17.14694-7.19493l-7.701 11.0414a12.67187 12.67187 0 0 0 3.85878 18.10607z" fill="#2f2e41" transform="translate(-308.72978 -86.11098)"/><circle cx="133.56513" cy="252.14322" fill="#ffb8b8" r="28.88236"/><path d="m98.264 313.117 37.708-8.023 4.814-31.289-26.476-5.616z" fill="#ffb8b8"/><path d="m417.424 485.07288h67.39218l-15.19038-38.13769c1.10383-13.12273-4.45793-22.77459-12.41823-31.17762l-10.09892-25.35466c-16.31743-10.73928-28.61911-9.937-41.719 4.01144-15.53165 21.99065-4.7808 55.04786 12.03435 90.65853z" fill="#0d0820" transform="translate(-308.72978 -86.11098)"/><path d="m447.91093 566.104 1.91657 21.0823c.68408 7.52478 4.63564 12.72072 12.00148 11.0371a12.48084 12.48084 0 0 0 8.82808-16.7496l-6.7004-16.97436-19.25491-78.62422 3.20915-56.96244h-32.09148l4.01144 60.97388z" fill="#ffb8b8" transform="translate(-308.72978 -86.11098)"/><path d="m397.30666 376.55688c3.10544-28.13634 11.06231-52.09549 24.86965-71.017l2.06713-.06949v-.51117l6.71182.28563 18.66347-.62728c-.437.45447-.8538.91109-1.2761 1.36713l13.60834.57909 12.83661 26.4755a85.26577 85.26577 0 0 0 -37.99453-2.15737 9.08687 9.08687 0 0 0 -7.1006 5.65771 3.38035 3.38035 0 0 0 .02372 2.97414c5.39469 9.40963 5.12585 19.74357-.357 30.59361-1.19687 2.36847 1.10132 5.21956 1.8216 7.83291z" fill="#2f2e41" transform="translate(-308.72978 -86.11098)"/><path d="m413.41255 430.5173h36.90525l-2.58722-24.07477a16.70084 16.70084 0 0 0 -15.85294-15.99889 16.70082 16.70082 0 0 0 -17.522 16.02556z" fill="#0d0820" transform="translate(-308.72978 -86.11098)"/></svg>