<svg viewBox="0 0 512 512" xmlns="http://www.w3.org/2000/svg"><path d="M38.957 244.87h122.44v111.3H38.957zM422.96 0H89.05C61.43 0 38.963 22.468 38.963 50.087v161.39h434.09V50.087C473.052 22.468 450.585 0 422.966 0zm-16.696 150.26c0 9.223-7.479 16.696-16.696 16.696h-267.13c-9.217 0-16.696-7.473-16.696-16.696V72.347c0-9.223 7.479-16.696 16.696-16.696h267.13c9.217 0 16.696 7.473 16.696 16.696v77.913zM38.957 389.56v72.348c0 27.619 22.468 50.087 50.087 50.087h72.348v-122.44H38.952zm311.652-144.69V512h72.348c27.619 0 50.087-22.468 50.087-50.087V244.87H350.609zM194.78 389.56h122.44V512H194.78zm0-144.69h122.44v111.3H194.78z"/></svg>