<svg height="612" viewBox="0 0 1020 612" width="1020" xmlns="http://www.w3.org/2000/svg"><path d="M279.76 611.197l-26.493-74.179s29.141 14.571 30.466 33.116c0 0-6.623-92.723-19.87-112.592 0 0 21.195 2.649 45.038 105.969 0 0 3.974-119.215-31.791-153.655 0 0 49.01 39.738 52.984 125.838v75.503zm496.83 0l-6.37-17.836s7.007 3.504 7.326 7.963c0 0-1.593-22.295-4.778-27.072 0 0 5.096.637 10.83 25.48 0 0 .955-28.665-7.645-36.946 0 0 11.784 9.555 12.74 30.257v18.154z" fill="#f2f2f2"/><circle cx="658.583" cy="341.339" fill="#f2f2f2" r="116.457"/><path d="M0 8.835h274.677v152.598H0zm372.661 0H647.34v152.598H372.66zm372.662 0H1020v152.598H745.323z" fill="#f2f2f2"/><path d="M706.086 611.616c-.184-.301-4.53-7.558-6.037-22.627-1.382-13.824-.493-37.126 11.592-69.631 22.894-61.578-5.276-111.263-5.564-111.758l1.39-.806c.073.125 7.342 12.793 11.636 32.964a143.813 143.813 0 01-5.956 80.16c-22.856 61.473-5.864 90.574-5.69 90.86z" fill="#3f3d56"/><circle cx="697.134" cy="393.543" fill="#0d0820" r="10.441"/><circle cx="730.063" cy="432.094" fill="#3f3d56" r="10.441"/><circle cx="707.575" cy="457.795" fill="#0d0820" r="10.441"/><circle cx="734.882" cy="479.48" fill="#0d0820" r="10.441"/><circle cx="699.543" cy="513.213" fill="#3f3d56" r="10.441"/><path d="M712.394 612s-10.441-25.7 20.882-44.976zm-12.841-.466s-4.752-27.33-41.53-27.097zM.402 0h273.874v13.654H.402zm372.661 0H647.74v13.654H373.063zm372.661 0h273.874v13.654H745.724z" fill="#3f3d56"/><path d="M20.882 34.937h49.795v35.339H20.882zm95.575 0h137.338v4.016H116.457zm0 16.063h137.338v4.016H116.457zm0 16.063h137.338v4.016H116.457zm277.086-32.126h49.796v35.339h-49.796zm95.575 0h137.339v4.016H489.118zm0 16.063h137.339v4.016H489.118zm0 16.063h137.339v4.016H489.118zm277.087-32.126H816v35.339h-49.795zm95.575 0h137.338v4.016H861.78zm0 16.063h137.338v4.016H861.78zm0 16.063h137.338v4.016H861.78z" fill="#fff"/><circle cx="45.78" cy="53.008" fill="#0d0820" r="16.063"/><circle cx="791.102" cy="53.008" fill="#0d0820" r="16.063"/><path d="M126.714 161.433h1.606v4.819h-1.606zm1.606 197.575h-1.606v-9.638h1.606zm0-19.276h-1.606v-9.638h1.606zm0-19.275h-1.606v-9.638h1.606zm0-19.276h-1.606v-9.638h1.606zm0-19.275h-1.606v-9.638h1.606zm0-19.276h-1.606v-9.638h1.606zm0-19.276h-1.606v-9.637h1.606zm0-19.275h-1.606v-9.638h1.606zm0-19.276h-1.606v-9.638h1.606zm0-19.275h-1.606v-9.638h1.606zm4.016 188.74h-5.622v-5.622h1.606v4.015h4.016zm735.824 0h-9.68v-1.607h9.68zm-19.363 0h-9.681v-1.607h9.681zm-19.363 0h-9.683v-1.607h9.683zm-19.364 0h-9.682v-1.607h9.682zm-19.364 0h-9.682v-1.607h9.682zm-19.364 0h-9.682v-1.607h9.682zm-19.363 0h-9.683v-1.607h9.683zm-19.365 0h-9.681v-1.607h9.681zm-19.363 0h-9.683v-1.607h9.683zm-19.364 0h-9.682v-1.607h9.682zm-19.364 0h-9.682v-1.607h9.682zm-19.364 0h-9.682v-1.607h9.682zm-19.363 0h-9.683v-1.607h9.683zm-19.365 0h-9.681v-1.607h9.681zm-19.363 0h-9.682v-1.607h9.682zm-19.364 0h-9.682v-1.607h9.682zm-19.364 0h-9.682v-1.607h9.682zm-19.364 0h-9.682v-1.607h9.682zm-19.363 0h-9.682v-1.607h9.682zm-19.364 0h-9.682v-1.607h9.682zm-19.364 0h-9.682v-1.607h9.682zm-19.364 0h-9.682v-1.607h9.682zm-19.364 0h-9.682v-1.607h9.682zm-19.363 0h-9.683v-1.607h9.683zm-19.364 0h-9.682v-1.607h9.682zm-19.364 0h-9.682v-1.607h9.682zm-19.364 0h-9.682v-1.607h9.682zm-19.364 0h-9.682v-1.607h9.682zm-19.364 0h-9.682v-1.607h9.682zm-19.363 0h-9.683v-1.607h9.683zm-19.364 0h-9.682v-1.607h9.682zm-19.364 0H258.2v-1.607h9.682zm-19.364 0h-9.682v-1.607h9.682zm-19.364 0h-9.681v-1.607h9.681zm-19.364 0h-9.681v-1.607h9.681zm-19.363 0h-9.682v-1.607h9.682zm-19.364 0h-9.682v-1.607h9.682zm-19.364 0h-9.682v-1.607h9.682zm731.765 0h-5.622v-1.607h4.015v-4.015h1.607zm0-15.26h-1.607v-9.638h1.607zm0-19.276h-1.607v-9.638h1.607zm0-19.275h-1.607v-9.638h1.607zm0-19.276h-1.607v-9.638h1.607zm0-19.275h-1.607v-9.638h1.607zm0-19.276h-1.607v-9.638h1.607zm0-19.276h-1.607v-9.637h1.607zm0-19.275h-1.607v-9.638h1.607zm0-19.276h-1.607v-9.638h1.607zm0-19.275h-1.607v-9.638h1.607zm-1.607-24.095h1.607v4.819h-1.607z" fill="#3f3d56"/><path d="M372.661 325.276H647.34v285.92H372.66z" fill="#3f3d56"/><path d="M393.543 362.622h49.796v35.339h-49.796zm95.575 0h137.339v4.016H489.118zm0 16.063h137.339v4.016H489.118zm0 16.063h137.339v4.016H489.118zm-95.575 95.173h49.796v35.339h-49.796zm95.575 0h137.339v4.016H489.118zm0 16.063h137.339V510H489.118zm0 16.063h137.339v4.016H489.118z" fill="#fff"/><path d="M418.652 389.229l-17.045-22.726 4.038-3.028 13.885 18.514 35.393-28.665 3.196 3.906zm0 126.095l-17.045-22.726 4.038-3.028 13.885 18.513 35.393-28.665 3.196 3.907z" fill="#0d0820"/><path d="M7.228 610.394h991.89V612H7.228zm537.346-440.126s26.504-11.55 38.953.65-33.331 8.184-38.953-.65z" fill="#3f3d56"/><path d="M590.34 115.497c-8.908-15.05-26.529-15.751-26.529-15.751s-17.171-2.196-28.186 20.725c-10.267 21.364-24.437 41.991-2.281 46.993l4.002-12.456 2.478 13.383a86.686 86.686 0 009.48.162c23.726-.766 46.322.224 45.595-8.29-.967-11.318 4.01-30.285-4.56-44.766z" fill="#2f2e41"/><path d="M602.802 388.323s-11.244 20.882-18.472 20.882-6.425 13.653-4.82 16.866 5.623 10.44-.802 20.882c-2.245 3.647-1.843 7.784-.37 11.623 4.126 10.759 20.178 7.5 19.666-4.012l-.02-.383c-.804-12.85 5.621-32.929 12.047-37.748s12.047-17.67 12.047-17.67zm-77.102-4.819s11.244 20.882 18.472 20.882 6.425 13.653 4.82 16.866-5.623 10.44.802 20.882c2.245 3.647 1.843 7.784.37 11.624-4.126 10.758-20.178 7.498-19.666-4.013l.02-.383c.804-12.85-5.621-32.929-12.047-37.748s-12.047-17.67-12.047-17.67z" fill="#ffb8b8"/><path d="M534.534 280.7l-4.818 10.442s-70.678 23.291-64.252 50.598 37.748 69.874 42.567 68.268 30.52-6.425 31.322-20.079-18.472-37.748-18.472-37.748l26.504-24.094 38.567-.804 32.913 24.898s-34.535 30.52-19.275 42.567 37.748 20.079 40.96 15.26 39.355-76.3 33.733-82.725-62.646-30.52-62.646-30.52l-15.26-21.684-59.433-3.213z" fill="#2f2e41"/><path d="M548.991 148.181s4.016 26.504-4.016 29.717 16.063 16.866 16.063 16.866h13.654l8.835-18.473s-8.032-14.456-3.213-28.11-31.323 0-31.323 0z" fill="#ffb8b8"/><path d="M548.991 148.181s4.016 26.504-4.016 29.717 16.063 16.866 16.063 16.866h13.654l8.835-18.473s-8.032-14.456-3.213-28.11-31.323 0-31.323 0z" opacity=".1"/><path d="M543.37 170.67s8.834 9.637 10.44 11.243 8.835 10.441 24.095-2.41 16.866 2.41 16.866 2.41v96.378s-12.85-5.622-23.292 0-32.126-1.606-32.126-1.606l-4.015-99.59z" fill="#fff"/><path d="M549.269 170.67s-7.506-3.213-13.931 0-28.914 19.275-27.307 26.503 22.488 57.827 8.031 81.921-16.866 30.52-16.866 30.52l35.338-18.472s27.308-16.866 24.898-27.307-10.163-93.166-10.163-93.166zm31.858 0s16.856 1.606 17.66 3.212 25.299 8.433 23.692 15.661-23.693 71.882-14.055 83.93 25.701 28.913 20.079 30.52-15.26-2.41-24.898 0-32.126-17.67-29.716-39.355.019-88.347 7.238-93.969z" fill="#0d0820"/><path d="M540.96 324.07v8.032s-4.016 18.473 8.834 17.67 4.82-22.489 4.82-22.489l-.804-7.228zm36.141.804s-8.834 18.472 0 20.079 15.26-10.441 15.26-13.654-15.26-6.425-15.26-6.425z" fill="#ffb8b8"/><ellipse cx="588.747" cy="137.339" fill="#ffb8b8" rx="1.606" ry="3.213"/><ellipse cx="541.361" cy="137.339" fill="#ffb8b8" rx="1.606" ry="3.213"/><path d="M602.802 181.11s20.079 0 19.276 8.032-27.307 146.173-27.307 146.173-11.244-10.44-20.882-8.032zm-77.905 2.41s-20.079 4.015-20.079 16.063 28.913 127.7 32.93 127.7 19.275-2.409 19.275-6.425-32.126-137.338-32.126-137.338z" fill="#0d0820"/><path d="M529.314 207.213l18.07 70.67s-8.432-61.836-18.07-70.67zm70.289-9.93l-18.276 92.397s5.841-87.067 18.276-92.397z" opacity=".2"/><circle cx="565.054" cy="137.74" fill="#ffb8b8" r="23.291"/><path d="M586.401 114.046l-17.409-9.119-24.041 3.73-4.974 21.969 12.382-.476 3.459-8.071v7.938l5.713-.22 3.316-12.85 2.073 13.679 20.31-.414z" fill="#2f2e41"/></svg>